# xmcd
#
# Track frame offsets:
#	150
#	17774
#	33481
#	52006
#	68312
#	86519
#	99580
#	115470
#	134247
#	148272
#	165896
#	181603
#	200128
#	216434
#	234641
#	247702
#	263592
#	282369
#
# Disc length: 3951 seconds
#
# Revision: 0
# Processed by: cddbd v1.5.1PL2 Copyright (c) Steve Scherf et al.
# Submitted via: audiograbber 1.83.01
#
DISCID=040f6d12
DTITLE=Pop Hits Monthly - January 2005
DYEAR=1900
DGENRE=
TTITLE0=Rascal Flatts - Bless the Broken Road
TTITLE1=Alan Jackson - Monday Morning Church
TTITLE2=Gretchen Wilson - When I Think About Cheatin'
TTITLE3=Lee Ann Womack - I May Hate Myself in the Morning
TTITLE4=Tracy Bird - Revenge of a Middle-Aged Woman
TTITLE5=Shelly Fairchild - You Don't Lie Here Anymore
TTITLE6=Jamie O'Neal - Trying To Find Atlantis
TTITLE7=Keith Urban - You're My Better Half
TTITLE8=Mark Chesnutt - I'm A Saint
TTITLE9=Rascal Flatts - Bless the Broken Road
TTITLE10=Alan Jackson - Monday Morning Church
TTITLE11=Gretchen Wilson - When I Think About Cheatin'
TTITLE12=Lee Ann Womack - I Hate Myself in the Morning
TTITLE13=Tracy Bird - Revenge of a Middle-Aged Woman
TTITLE14=Shelly Fairchild - You Don't Lie Here Anymore
TTITLE15=Jamie Oneal - Trying To Find Atlantis
TTITLE16=Keith Urban - You're My Better Half
TTITLE17=Mark Chesnut - I'm A Saint
EXTD=Nashville Edition Karaoke CD vol.0501-C
EXTT0=
EXTT1=
EXTT2=
EXTT3=
EXTT4=
EXTT5=
EXTT6=
EXTT7=
EXTT8=
EXTT9=
EXTT10=
EXTT11=
EXTT12=
EXTT13=
EXTT14=
EXTT15=
EXTT16=
EXTT17=
PLAYORDER=
